<?xml version="1.0" encoding="UTF-8" standalone="no"?>
<!-- Generator: Adobe Illustrator 19.0.0, SVG Export Plug-In . SVG Version: 6.00 Build 0)  -->

<svg
   xmlns:dc="http://purl.org/dc/elements/1.1/"
   xmlns:cc="http://creativecommons.org/ns#"
   xmlns:rdf="http://www.w3.org/1999/02/22-rdf-syntax-ns#"
   xmlns:svg="http://www.w3.org/2000/svg"
   xmlns="http://www.w3.org/2000/svg"
   xmlns:sodipodi="http://sodipodi.sourceforge.net/DTD/sodipodi-0.dtd"
   xmlns:inkscape="http://www.inkscape.org/namespaces/inkscape"
   version="1.1"
   id="Layer_1"
   x="0px"
   y="0px"
   viewBox="0 0 512 512"
   style="enable-background:new 0 0 512 512;"
   xml:space="preserve"
   sodipodi:docname="free.svg"
   inkscape:version="0.92.3 (2405546, 2018-03-11)"><metadata
   id="metadata67"><rdf:RDF><cc:Work
       rdf:about=""><dc:format>image/svg+xml</dc:format><dc:type
         rdf:resource="http://purl.org/dc/dcmitype/StillImage" /><dc:title></dc:title></cc:Work></rdf:RDF></metadata><defs
   id="defs65" /><sodipodi:namedview
   pagecolor="#ffffff"
   bordercolor="#666666"
   borderopacity="1"
   objecttolerance="10"
   gridtolerance="10"
   guidetolerance="10"
   inkscape:pageopacity="0"
   inkscape:pageshadow="2"
   inkscape:window-width="640"
   inkscape:window-height="480"
   id="namedview63"
   showgrid="false"
   inkscape:zoom="0.4609375"
   inkscape:cx="256"
   inkscape:cy="256"
   inkscape:window-x="70"
   inkscape:window-y="30"
   inkscape:window-maximized="0"
   inkscape:current-layer="Layer_1" />
<g
   id="g6">
	<g
   id="g4">
		<polygon
   points="389.565,205.913 389.565,172.522 300.522,172.522 300.522,339.478 389.565,339.478 389.565,306.087     333.913,306.087 333.913,272.696 389.565,272.696 389.565,239.304 333.913,239.304 333.913,205.913   "
   id="polygon2" />
	</g>
</g>
<g
   id="g12">
	<g
   id="g10">
		<polygon
   points="100.174,205.913 100.174,172.522 0,172.522 0,339.478 33.391,339.478 33.391,272.696 100.174,272.696     100.174,239.304 33.391,239.304 33.391,205.913   "
   id="polygon8" />
	</g>
</g>
<g
   id="g18">
	<g
   id="g16">
		<polygon
   points="512,205.913 512,172.522 422.957,172.522 422.957,339.478 512,339.478 512,306.087 456.348,306.087     456.348,272.696 512,272.696 512,239.304 456.348,239.304 456.348,205.913   "
   id="polygon14" />
	</g>
</g>
<g
   id="g24">
	<g
   id="g22">
		<path
   d="M133.565,172.522v166.957h33.391v-66.783h33.391v33.391h33.391v-33.391H256V172.522H133.565z M222.609,239.304h-55.652    v-33.391h55.652V239.304z"
   id="path20" />
	</g>
</g>
<g
   id="g30">
	<g
   id="g28">
		<rect
   x="233.739"
   y="306.087"
   width="33.391"
   height="33.391"
   id="rect26" />
	</g>
</g>
<g
   id="g32">
</g>
<g
   id="g34">
</g>
<g
   id="g36">
</g>
<g
   id="g38">
</g>
<g
   id="g40">
</g>
<g
   id="g42">
</g>
<g
   id="g44">
</g>
<g
   id="g46">
</g>
<g
   id="g48">
</g>
<g
   id="g50">
</g>
<g
   id="g52">
</g>
<g
   id="g54">
</g>
<g
   id="g56">
</g>
<g
   id="g58">
</g>
<g
   id="g60">
</g>
</svg>